<?xml version="1.0" standalone="no"?>
<!DOCTYPE svg PUBLIC "-//W3C//DTD SVG 20010904//EN"
 "http://www.w3.org/TR/2001/REC-SVG-20010904/DTD/svg10.dtd">
<svg version="1.0" xmlns="http://www.w3.org/2000/svg"
 width="1324.000000pt" height="380.000000pt" viewBox="0 0 1324.000000 380.000000"
 preserveAspectRatio="xMidYMid meet">

<g transform="translate(0.000000,380.000000) scale(0.100000,-0.100000)"
fill="#000000" stroke="none">
<path d="M3394 3168 c-16 -12 -47 -38 -69 -59 l-40 -37 -65 9 c-36 4 -132 11
-215 15 -549 24 -1141 -169 -1561 -509 -105 -86 -275 -264 -347 -364 -175
-246 -259 -471 -261 -698 -1 -208 52 -343 189 -480 141 -142 316 -213 550
-222 255 -10 477 55 707 209 115 77 289 244 378 363 72 96 173 266 210 353
l22 52 97 0 c53 0 141 7 195 14 86 13 110 13 184 0 259 -46 463 -158 529 -292
75 -153 -4 -317 -200 -412 -148 -71 -212 -83 -452 -84 -238 -1 -298 8 -497 75
-111 37 -120 38 -152 25 -69 -29 -88 -102 -38 -155 33 -36 184 -91 333 -121
517 -106 1043 46 1187 342 136 282 -2 576 -341 723 l-66 29 56 31 c192 106
303 288 303 495 -1 251 -159 430 -482 543 -14 5 -15 10 -2 46 10 30 11 47 3
71 -21 58 -102 78 -155 38z m-256 -283 c1 -1 -15 -31 -37 -67 -98 -161 -213
-423 -295 -674 l-36 -110 -50 -13 c-96 -25 -129 -107 -71 -174 l30 -33 -36
-70 c-149 -290 -413 -546 -673 -651 -127 -51 -207 -66 -345 -67 -104 0 -145 4
-208 22 -143 41 -225 92 -293 184 -88 120 -112 294 -65 473 58 220 250 503
469 688 349 296 822 478 1302 500 56 2 303 -4 308 -8z m366 -75 c156 -53 249
-118 293 -208 24 -48 28 -69 28 -137 0 -184 -115 -303 -373 -389 -127 -42
-146 -44 -324 -32 -104 6 -138 11 -138 21 0 27 84 254 139 375 57 126 143 279
200 358 38 52 55 53 175 12z"/>
<path d="M4406 2243 c-82 -23 -143 -111 -132 -191 19 -136 163 -203 277 -128
74 49 98 141 58 224 -35 72 -129 116 -203 95z"/>
<path d="M4395 1721 c-48 -21 -63 -52 -74 -151 -19 -175 -24 -381 -11 -450 44
-244 231 -362 426 -269 64 30 163 117 215 189 l26 34 27 -46 c36 -62 115 -134
180 -164 151 -69 343 -25 479 111 94 93 155 193 260 425 l16 35 0 -50 c0 -27
-6 -113 -14 -190 -26 -248 -18 -292 58 -328 44 -21 66 -21 117 -1 47 19 77 59
140 184 56 112 133 242 186 310 77 101 73 107 71 -117 -2 -182 0 -202 19 -243
76 -165 260 -197 423 -74 34 25 82 72 108 105 l46 59 28 -50 c64 -117 145
-190 211 -190 97 0 205 107 299 296 l62 124 42 -39 c79 -73 178 -107 263 -91
l43 7 35 -74 c43 -90 81 -135 157 -184 157 -101 369 -66 524 88 97 96 169 212
257 417 9 21 19 36 21 34 3 -3 -4 -103 -16 -224 -11 -120 -17 -233 -14 -251 7
-40 63 -90 109 -98 76 -15 132 26 186 135 115 231 274 470 297 447 3 -4 1 -64
-6 -134 -13 -141 -4 -259 25 -316 47 -93 139 -144 244 -134 75 6 144 43 224
117 60 56 65 59 71 39 12 -37 78 -101 130 -125 91 -43 195 -27 289 44 27 20
54 41 60 45 7 5 32 -12 66 -45 66 -64 121 -84 207 -75 85 9 169 55 250 138
l70 70 31 -48 c112 -175 316 -228 515 -135 118 55 234 188 329 378 37 76 39
84 28 118 -23 70 -99 98 -153 56 -14 -11 -48 -65 -76 -119 -111 -217 -216
-296 -356 -270 -67 13 -77 26 -41 53 102 74 153 139 186 237 91 267 -177 463
-388 284 -45 -38 -72 -83 -111 -185 -78 -205 -214 -380 -295 -380 -93 0 -130
131 -108 384 11 125 3 166 -35 196 -31 24 -63 26 -103 5 -43 -22 -57 -58 -64
-170 -15 -213 -39 -294 -104 -358 -64 -62 -135 -56 -159 13 -27 75 8 260 69
368 47 84 34 157 -32 181 -54 18 -96 -3 -140 -70 -21 -33 -46 -84 -56 -112
-66 -207 -219 -413 -320 -433 -47 -9 -58 28 -54 180 8 251 3 287 -47 347 -36
42 -80 62 -138 62 -103 0 -174 -58 -290 -233 -38 -58 -72 -109 -76 -114 -4 -4
-6 56 -6 135 2 135 0 147 -23 194 -35 69 -80 98 -145 93 -97 -8 -140 -59 -274
-324 -50 -99 -107 -202 -126 -227 -78 -102 -176 -148 -272 -126 -78 17 -80 26
-15 73 179 132 234 352 121 489 -44 53 -101 80 -170 80 -130 -2 -234 -90 -283
-240 -24 -71 -50 -103 -87 -103 -84 0 -160 90 -214 255 -38 115 -74 147 -140
125 -59 -19 -68 -39 -76 -163 -3 -62 -14 -141 -24 -177 -21 -77 -103 -253
-139 -295 -26 -30 -26 -30 -42 -10 -75 92 -115 312 -79 431 22 72 19 99 -14
136 -22 25 -37 32 -65 32 -79 0 -122 -73 -134 -224 -7 -77 -12 -94 -52 -165
-56 -100 -170 -219 -219 -228 -18 -4 -37 -4 -42 -2 -23 15 -30 93 -23 254 7
165 6 169 -18 223 -29 62 -66 93 -129 107 -116 26 -210 -43 -341 -249 -63 -99
-86 -122 -74 -75 4 14 7 76 7 139 1 96 -3 121 -21 165 -37 85 -134 125 -209
86 -55 -28 -110 -106 -202 -288 -51 -100 -106 -202 -122 -227 -66 -98 -149
-153 -232 -153 -50 -1 -125 18 -125 31 1 4 25 25 55 47 186 138 235 373 104
504 -44 45 -92 64 -159 63 -71 -1 -121 -22 -179 -77 -49 -46 -65 -73 -104
-172 -53 -137 -177 -321 -255 -380 -73 -56 -145 -37 -174 45 -15 45 -15 232 2
409 11 128 5 170 -32 200 -20 17 -69 24 -93 14z m3960 -261 c7 -22 -2 -63 -23
-105 -16 -34 -81 -105 -95 -105 -17 0 0 136 23 180 29 57 81 74 95 30z m-3095
-17 c0 -21 -11 -60 -24 -88 -24 -52 -81 -114 -93 -102 -3 4 -5 28 -4 54 3 104
40 173 92 173 27 0 29 -3 29 -37z m6248 8 c6 -37 -27 -111 -71 -158 -22 -24
-43 -43 -48 -43 -25 0 2 155 35 205 14 21 24 26 49 23 25 -2 33 -8 35 -27z"/>
</g>
</svg>
